<svg width="400" height="400" viewBox="0 0 400 400" fill="none" xmlns="http://www.w3.org/2000/svg">
<g clip-path="url(#clip0_3_10)">
<path d="M199.949 380.001C118.304 380.001 52 313.711 52 232.052L52 42.0008L347.898 42.0008L347.898 232.052C347.898 313.711 281.608 380.001 199.949 380.001Z" fill="#FF6D63"/>
<path d="M175.761 144.031V173.162C170.116 173.396 164.384 173.849 158.491 174.565C153.285 175.194 147.961 176.042 142.478 177.168V144.031H175.761Z" fill="#F6E1CE"/>
<path d="M175.761 209.442V307.83H142.478V218.157C154.103 213.741 165.13 211.079 175.761 209.427V209.442Z" fill="#F6E1CE"/>
<path d="M258.605 94.5874V181.994C255.3 181.043 252.039 180.195 248.822 179.449C240.779 177.548 232.999 176.218 225.307 175.34V94.6021H258.605V94.5874Z" fill="#F6E1CE"/>
<path d="M258.605 223.789V258.404H225.307V211.578C225.848 211.725 226.404 211.856 226.945 212.002C237.167 214.708 247.696 218.393 258.605 223.789Z" fill="#F6E1CE"/>
<path d="M300.298 199.206C298.704 202.131 297.285 204.676 295.984 207.045C292.079 214.152 289.066 219.621 284.255 228.366C275.379 223.482 266.838 219.724 258.605 216.828C247.944 213.084 237.781 210.774 227.968 209.282C227.076 209.136 226.184 209.019 225.307 208.917C217.424 207.805 209.718 207.279 201.996 207.293C193.485 206.357 184.901 206.094 175.995 206.489C175.907 206.489 175.834 206.489 175.747 206.504C165.232 206.957 154.22 208.317 142.463 211.256C134.654 213.187 126.523 215.848 117.983 219.417C114.151 210.204 111.738 204.427 108.609 196.94C107.57 194.439 106.459 191.748 105.172 188.692C118.334 183.208 130.691 179.567 142.463 177.168C147.932 176.042 153.255 175.194 158.476 174.565C164.369 173.849 170.102 173.381 175.747 173.161C185.34 172.796 194.597 173.132 203.795 174.083C210.917 174.112 218.039 174.521 225.292 175.326C232.984 176.203 240.764 177.549 248.807 179.435C252.024 180.195 255.285 181.029 258.59 181.98C271.796 185.738 285.644 191.163 300.283 199.206H300.298Z" fill="#F6E1CE"/>
</g>
<defs>
<clipPath id="clip0_3_10">
<rect width="295.898" height="338" fill="white" transform="translate(52 42)"/>
</clipPath>
</defs>
</svg>
